<svg xmlns="http://www.w3.org/2000/svg" xmlns:xlink="http://www.w3.org/1999/xlink" viewBox="0 0 388.68 385.54"><defs><style>.cls-1{isolation:isolate;}.cls-2{fill:#cfccff;}.cls-3{fill:url(#linear-gradient);}.cls-11,.cls-25,.cls-26,.cls-27,.cls-28,.cls-29,.cls-4,.cls-6,.cls-9{fill:none;stroke-miterlimit:10;}.cls-11,.cls-4,.cls-6{stroke:#fff;}.cls-11,.cls-25,.cls-26,.cls-28,.cls-4,.cls-6,.cls-9{stroke-linecap:round;}.cls-4{stroke-width:1.63px;}.cls-5{fill:url(#linear-gradient-2);}.cls-6,.cls-9{stroke-width:1.44px;}.cls-13,.cls-18,.cls-20,.cls-46,.cls-50,.cls-61,.cls-7{mix-blend-mode:overlay;}.cls-7{opacity:0.28;}.cls-8{fill:url(#linear-gradient-3);}.cls-25,.cls-9{stroke:#0f9ad6;}.cls-10{fill:url(#linear-gradient-4);}.cls-11{stroke-width:1.04px;}.cls-12{fill:#0073aa;}.cls-13{opacity:0.19;}.cls-14{fill:url(#linear-gradient-5);}.cls-15{fill:url(#linear-gradient-6);}.cls-16{fill:url(#radial-gradient);}.cls-17,.cls-67{fill:#450b82;}.cls-17{opacity:0.3;}.cls-18{opacity:0.25;}.cls-19{fill:url(#linear-gradient-7);}.cls-20{opacity:0.21;}.cls-21{fill:url(#linear-gradient-8);}.cls-22{opacity:0.12;}.cls-23{fill:url(#linear-gradient-9);}.cls-24{fill:url(#linear-gradient-10);}.cls-25{stroke-width:0.86px;}.cls-26,.cls-27{stroke:#0091c8;}.cls-26,.cls-27,.cls-28,.cls-29{stroke-width:2.52px;}.cls-28,.cls-29{stroke:#41b4e6;}.cls-30{fill:#fab9af;}.cls-31{fill:#f5415f;}.cls-32{fill:#c3417d;}.cls-33{fill:#502d6e;}.cls-34{fill:#482963;}.cls-35{fill:#6e289b;}.cls-36{fill:#ffe65a;}.cls-37{fill:#ffd23c;}.cls-38{fill:#ff6473;}.cls-39{fill:#5046af;}.cls-40{fill:#ffc305;}.cls-41{fill:#0091c8;}.cls-42{fill:url(#linear-gradient-11);}.cls-43{fill:url(#linear-gradient-12);}.cls-44{fill:url(#linear-gradient-13);}.cls-45,.cls-46{fill:#dfabff;}.cls-46{opacity:0.5;}.cls-47{fill:url(#radial-gradient-2);}.cls-48,.cls-51,.cls-53,.cls-57{opacity:0.49;}.cls-48{fill:url(#radial-gradient-3);}.cls-49{fill:url(#radial-gradient-4);}.cls-50{opacity:0.15;}.cls-51{fill:url(#radial-gradient-5);}.cls-52{fill:url(#radial-gradient-6);}.cls-53{fill:url(#radial-gradient-7);}.cls-54{fill:url(#radial-gradient-8);}.cls-55{fill:url(#radial-gradient-9);}.cls-56{fill:url(#radial-gradient-10);}.cls-57{fill:url(#radial-gradient-11);}.cls-58{fill:url(#radial-gradient-12);}.cls-59{fill:url(#radial-gradient-13);}.cls-60{fill:url(#radial-gradient-14);}.cls-61,.cls-67{opacity:0.1;}.cls-62{fill:url(#radial-gradient-15);}.cls-63{fill:url(#radial-gradient-16);}.cls-64{fill:#ffa50a;}.cls-65{fill:url(#linear-gradient-14);}.cls-66{fill:#fff;mix-blend-mode:lighten;opacity:0.41;}</style><linearGradient id="linear-gradient" x1="118.27" y1="332.43" x2="118.27" y2="383.86" gradientUnits="userSpaceOnUse"><stop offset="0" stop-color="aqua"/><stop offset="1" stop-color="#1c9585"/></linearGradient><linearGradient id="linear-gradient-2" x1="397.13" y1="283.11" x2="397.13" y2="381.14" gradientTransform="translate(-1.95 -4.77) rotate(0.03)" gradientUnits="userSpaceOnUse"><stop offset="0" stop-color="#afe6ff"/><stop offset="1" stop-color="#41b4e6"/></linearGradient><linearGradient id="linear-gradient-3" x1="397.61" y1="344.06" x2="415.05" y2="396.12" gradientTransform="translate(60.17 -75.25) rotate(11.28)" gradientUnits="userSpaceOnUse"><stop offset="0" stop-color="#71c8ef"/><stop offset="1" stop-color="#0f9ad6"/></linearGradient><linearGradient id="linear-gradient-4" x1="309.75" y1="239.63" x2="309.75" y2="299.08" gradientTransform="translate(-55.33 208.32) rotate(-31.4)" xlink:href="#linear-gradient"/><linearGradient id="linear-gradient-5" x1="115.8" y1="134.83" x2="90.26" y2="202.47" gradientTransform="translate(21.08 432.98) rotate(-90)" gradientUnits="userSpaceOnUse"><stop offset="0.07" stop-color="#ff337c"/><stop offset="0.33" stop-color="#c2227d"/><stop offset="1" stop-color="#480080"/></linearGradient><linearGradient id="linear-gradient-6" x1="106.91" y1="240.44" x2="98.87" y2="305.24" xlink:href="#linear-gradient-5"/><radialGradient id="radial-gradient" cx="285.14" cy="167.11" fx="317.75316569110237" fy="145.64137587159217" r="181.18" gradientTransform="translate(21.08 432.98) rotate(-90)" gradientUnits="userSpaceOnUse"><stop offset="0.15" stop-color="#ad33ff"/><stop offset="1" stop-color="#5c64ed"/></radialGradient><linearGradient id="linear-gradient-7" x1="166.05" y1="143.31" x2="236.99" y2="143.31" gradientTransform="matrix(1, 0, 0, 1, 0, 0)" xlink:href="#linear-gradient-5"/><linearGradient id="linear-gradient-8" x1="244.88" y1="182.86" x2="265.28" y2="204.1" gradientTransform="translate(217.29 -125.95) rotate(45)" xlink:href="#linear-gradient-2"/><linearGradient id="linear-gradient-9" x1="101.3" y1="223.4" x2="101.3" y2="239.48" xlink:href="#linear-gradient-5"/><linearGradient id="linear-gradient-10" x1="-94.31" y1="325.93" x2="-83.88" y2="357.04" gradientTransform="translate(-211.14 395.66) rotate(-116.21)" xlink:href="#linear-gradient-2"/><linearGradient id="linear-gradient-11" x1="284.43" y1="357" x2="325.05" y2="398.17" gradientTransform="matrix(1, 0, 0, 1, 0, 0)" xlink:href="#linear-gradient-5"/><linearGradient id="linear-gradient-12" x1="278.32" y1="349.75" x2="384.9" y2="461.24" gradientTransform="matrix(1, 0, 0, 1, 0, 0)" xlink:href="#linear-gradient-5"/><linearGradient id="linear-gradient-13" x1="286.35" y1="372.48" x2="271.57" y2="365.58" gradientUnits="userSpaceOnUse"><stop offset="0.07" stop-color="#ff337c"/><stop offset="0.33" stop-color="#c2227d"/><stop offset="1" stop-color="#f0f"/></linearGradient><radialGradient id="radial-gradient-2" cx="165.41" cy="155.98" r="44.06" gradientTransform="matrix(0.7, 0.71, -0.63, 0.63, 154.85, -47.6)" gradientUnits="userSpaceOnUse"><stop offset="0" stop-color="#fff"/><stop offset="1" stop-color="#ba9bc9"/></radialGradient><radialGradient id="radial-gradient-3" cx="118.81" cy="134.82" r="40.22" gradientTransform="matrix(-0.39, 0.92, -1.32, -0.56, 366.52, 92.71)" xlink:href="#radial-gradient-2"/><radialGradient id="radial-gradient-4" cx="122.16" cy="129.87" r="24.53" gradientTransform="translate(253.33 -17.21) rotate(76.8)" xlink:href="#radial-gradient-2"/><radialGradient id="radial-gradient-5" cx="165.14" cy="180.72" r="32.83" gradientTransform="matrix(-0.13, 0.99, -1.42, -0.18, 456.61, 43.23)" xlink:href="#radial-gradient-2"/><radialGradient id="radial-gradient-6" cx="168.58" cy="177.64" r="18.9" gradientTransform="translate(343.21 -14.99) rotate(80.81)" xlink:href="#radial-gradient-2"/><radialGradient id="radial-gradient-7" cx="132.77" cy="190.94" r="24.23" gradientTransform="matrix(-0.68, 0.73, -1.04, -0.98, 442.06, 277.89)" xlink:href="#radial-gradient-2"/><radialGradient id="radial-gradient-8" cx="135.37" cy="188.74" r="13.87" gradientTransform="translate(100.91 -42.53) rotate(25.6)" xlink:href="#radial-gradient-2"/><radialGradient id="radial-gradient-9" cx="152.2" cy="167.58" r="18.3" gradientTransform="translate(189.96 -155.3) rotate(52.37) scale(1 1.43)" xlink:href="#radial-gradient-2"/><radialGradient id="radial-gradient-10" cx="154.37" cy="166.21" r="15.42" gradientTransform="matrix(1, 0, 0, 1, 0, 0)" xlink:href="#radial-gradient-2"/><radialGradient id="radial-gradient-11" cx="107.88" cy="166.66" r="26.17" gradientTransform="matrix(0.26, 0.97, -1.38, 0.37, 315.35, -3)" xlink:href="#radial-gradient-2"/><radialGradient id="radial-gradient-12" cx="110.92" cy="164.64" r="14.58" gradientTransform="translate(77.44 -32.53) rotate(22.62)" xlink:href="#radial-gradient-2"/><radialGradient id="radial-gradient-13" cx="163.03" cy="134.5" r="25.89" gradientTransform="translate(156.7 -168.07) rotate(52.37) scale(1 1.43)" xlink:href="#radial-gradient-2"/><radialGradient id="radial-gradient-14" cx="165.95" cy="132.36" r="25.18" gradientTransform="translate(69.25 -56.18) rotate(22.62)" xlink:href="#radial-gradient-2"/><radialGradient id="radial-gradient-15" cx="178.45" cy="157.3" r="25.2" gradientTransform="translate(247.7 -121.39) rotate(52.37) scale(1 1.43)" xlink:href="#radial-gradient-2"/><radialGradient id="radial-gradient-16" cx="183.2" cy="159.33" r="17.46" gradientTransform="translate(174.19 -85.39) rotate(45)" xlink:href="#radial-gradient-2"/><linearGradient id="linear-gradient-14" x1="195.52" y1="97.33" x2="333.01" y2="6.17" gradientTransform="matrix(1, 0, 0, 1, 0, 0)" xlink:href="#linear-gradient-5"/></defs><g class="cls-1"><g id="OBJECTS"><path class="cls-2" d="M336.59,403.84a116.88,116.88,0,0,1-27.27-4.26,109.61,109.61,0,0,0-38.57-4.37c-14.6,1.15-27.54,3.77-36.14,7a47.39,47.39,0,0,1-17.47,2.85,330.85,330.85,0,0,0-34.46,1c-39,3.07-65.38,4.52-64.8,11.95s27.88,18,66.91,15c4.64-.37,9.16-.81,13.53-1.31a90.67,90.67,0,0,1,31.85,1.79c17.46,4.38,49.07,10.14,84.48,7.36,53.83-4.23,87.63-10.2,86.85-20.23C401,413.68,362.77,405,336.59,403.84Z" transform="translate(-59.16 -56)"/><path class="cls-3" d="M128.93,338.82a49.77,49.77,0,0,0-14.07-5.09,1,1,0,0,0-1.2,1h0a1,1,0,0,1-1.94.33l-.49-1.39a1,1,0,0,0-.82-.67,73.16,73.16,0,0,0-11.77-.52,1,1,0,0,0-1,1v1.12a1,1,0,0,1-1.81.59l-1.42-2a1,1,0,0,0-.91-.42,87.2,87.2,0,0,0-14.82,2.71,1,1,0,0,0-.69,1.24,84.65,84.65,0,0,0,14.15,27.4,1,1,0,0,0,1,.36l1.84-.35a1,1,0,0,1,.68,1.86l-.19.1a1,1,0,0,0-.25,1.55,50,50,0,0,0,12.37,9.79c20,11,45.05,4.77,50.21,3.31a1,1,0,0,0,.68-1.24C157,374.38,148.89,349.83,128.93,338.82Z" transform="translate(-59.16 -56)"/><line class="cls-4" x1="31.83" y1="287.1" x2="94.28" y2="321.54"/><line class="cls-4" x1="38.52" y1="297.04" x2="45.29" y2="295.09"/><line class="cls-4" x1="52.84" y1="309.22" x2="64.7" y2="305.79"/><line class="cls-4" x1="65.21" y1="320.36" x2="82.2" y2="315.45"/><line class="cls-4" x1="43.59" y1="287.85" x2="45.55" y2="294.62"/><line class="cls-4" x1="61.53" y1="293.47" x2="64.96" y2="305.33"/><line class="cls-4" x1="77.55" y1="297.99" x2="82.46" y2="314.98"/><path class="cls-5" d="M430.48,323.53h1.42a5.6,5.6,0,0,0,5.31-3.72,129.43,129.43,0,0,0,6.81-37,4,4,0,0,0-4.16-4.17,132,132,0,0,0-13.33,1.16,11.22,11.22,0,0,0-7.59,4.6l-1.31,1.84a1,1,0,0,1-1.87-.6h0a3.08,3.08,0,0,0-3.85-3l-.75.2a15,15,0,0,0-9.29,7.2l-4.59,8.23a1,1,0,0,1-1.93-.5v-4.86a2.9,2.9,0,0,0-4.21-2.59,75.28,75.28,0,0,0-19.51,13.86c-24.71,24.68-25.71,64.57-25.69,71.39a1,1,0,0,0,1,1c6.82,0,46.71-.93,71.42-25.61a75.5,75.5,0,0,0,14.08-19.87,3.89,3.89,0,0,0-1.46-5l-1.06-.64A1,1,0,0,1,430.48,323.53Z" transform="translate(-59.16 -56)"/><line class="cls-6" x1="368.87" y1="238.57" x2="293.24" y2="314.12"/><line class="cls-6" x1="351.76" y1="244.05" x2="351.76" y2="254.62"/><line class="cls-6" x1="328.26" y1="259.6" x2="328.25" y2="278.09"/><line class="cls-6" x1="307.07" y1="272.76" x2="307.05" y2="299.27"/><line class="cls-6" x1="362.89" y1="255.19" x2="352.32" y2="255.18"/><line class="cls-6" x1="347.31" y1="278.67" x2="328.82" y2="278.66"/><line class="cls-6" x1="334.12" y1="299.85" x2="307.62" y2="299.84"/><path class="cls-7" d="M417.25,352.07a75.68,75.68,0,0,0-7.6-3.07,5.41,5.41,0,0,0-3.51,0l-2.85,1a1,1,0,0,1-1.14-1.57,1,1,0,0,0-.62-1.6A50,50,0,0,0,386,346c-18.68,2.13-33.39,15.83-39.86,22.92-.19,3.08-.23,5.38-.22,6.6a1.64,1.64,0,0,0,0,.23l1.14.8C354.2,376.59,392.64,375.52,417.25,352.07Z" transform="translate(-59.16 -56)"/><path class="cls-8" d="M406.05,354.28l-2.89.83a1,1,0,0,1-1.06-1.62h0a1,1,0,0,0-.54-1.63,49.93,49.93,0,0,0-15.45-1.55c-22.74,1.45-40.53,20.17-44.11,24.2a1,1,0,0,0,.09,1.43c3.78,3.29,21.39,17.66,42.16,18.46a1,1,0,0,0,1-1.29l-.2-.74a1,1,0,0,1,1.64-1l1.59,1.37a5.41,5.41,0,0,0,4.27,1.26c18.29-2.66,32.87-15.88,38.55-21.75a3.57,3.57,0,0,0-.34-5.28,85.91,85.91,0,0,0-21.21-12.47A5.45,5.45,0,0,0,406.05,354.28Z" transform="translate(-59.16 -56)"/><line class="cls-9" x1="359.43" y1="314.36" x2="288.25" y2="318.88"/><line class="cls-9" x1="348.44" y1="309.56" x2="343.78" y2="314.85"/><line class="cls-9" x1="329.82" y1="307" x2="321.67" y2="316.26"/><line class="cls-9" x1="313.4" y1="304.26" x2="301.72" y2="317.53"/><line class="cls-9" x1="349.11" y1="320.04" x2="343.82" y2="315.39"/><line class="cls-9" x1="330.96" y1="324.95" x2="321.7" y2="316.79"/><line class="cls-9" x1="315.02" y1="329.75" x2="301.75" y2="318.06"/><path class="cls-10" d="M364.2,277.81a.57.57,0,0,1-.56-.92l1.42-1.71a.57.57,0,0,0,.13-.43,37.41,37.41,0,0,0-3.53-12,.58.58,0,0,0-.67-.3l-.23.07a.57.57,0,0,1-.58-.92l.31-.36a.58.58,0,0,0,.07-.64A61.18,61.18,0,0,0,347,244a.57.57,0,0,0-.79.06,61.71,61.71,0,0,0-5.65,8.1.55.55,0,0,0,0,.58c.2.32.56.91.89,1.42a.17.17,0,0,1,0,.23.17.17,0,0,1-.23,0l-.75-.65a.57.57,0,0,0-.86.15c-.65,1.2-1.3,2.48-1.92,3.84a.59.59,0,0,0,0,.45l1,2.52a.25.25,0,0,1-.39.29l-.93-.72a.57.57,0,0,0-.88.24,39.77,39.77,0,0,0-2.9,17.74c1.43,16.63,15.61,29.29,18.28,31.53a.57.57,0,0,0,.8-.06c2.12-2.51,12.78-15.94,12.76-31.44a.57.57,0,0,0-.69-.55Z" transform="translate(-59.16 -56)"/><line class="cls-11" x1="288.32" y1="198.48" x2="292.73" y2="249.74"/><line class="cls-11" x1="285.04" y1="206.47" x2="288.93" y2="209.75"/><line class="cls-11" x1="283.49" y1="219.95" x2="290.3" y2="225.68"/><line class="cls-11" x1="281.78" y1="231.83" x2="291.53" y2="240.05"/><line class="cls-11" x1="292.59" y1="205.83" x2="289.32" y2="209.72"/><line class="cls-11" x1="296.42" y1="218.84" x2="290.68" y2="225.65"/><line class="cls-11" x1="300.13" y1="230.26" x2="291.92" y2="240.02"/><path class="cls-12" d="M281.11,369.2H240.94a6.7,6.7,0,0,1-6.71-6.71V353.6h53.58v8.89A6.7,6.7,0,0,1,281.11,369.2Z" transform="translate(-59.16 -56)"/><polygon class="cls-13" points="228.65 307.43 228.65 297.6 175.07 297.6 175.07 300.57 228.65 307.43"/><path class="cls-14" d="M219.19,266.81,196,286.17a46.38,46.38,0,0,0-16.66,35.61V400.3h0a16.23,16.23,0,0,0,16.22-16.23v-9.16A68.23,68.23,0,0,1,220,322.6l21.42-17.94Z" transform="translate(-59.16 -56)"/><path class="cls-15" d="M302.32,266.81l23.21,19.36a46.39,46.39,0,0,1,16.67,35.61V400.3h0A16.23,16.23,0,0,1,326,384.07v-9.16a68.2,68.2,0,0,0-24.43-52.31l-21.42-17.94Z" transform="translate(-59.16 -56)"/><path class="cls-12" d="M287.39,354.71h-52.7a6.14,6.14,0,0,1-6.09-6.87l4.68-38.65H288.8l4.67,38.65A6.13,6.13,0,0,1,287.39,354.71Z" transform="translate(-59.16 -56)"/><polygon class="cls-13" points="231.21 266.21 229.64 256.31 174.12 256.31 172.54 266.21 231.21 266.21"/><path class="cls-16" d="M230.76,97.71c-10.55,33.39-19.42,77.06-19.42,119.83,0,30.57,2.73,59.1,7.47,83.27a21.75,21.75,0,0,0,21.36,17.54h41.74a21.76,21.76,0,0,0,21.36-17.54c4.73-24.17,7.47-52.7,7.47-83.27,0-42.77-9.35-86.44-20.16-119.83Z" transform="translate(-59.16 -56)"/><path class="cls-17" d="M266.37,97.71H230.76c-2.28,7.21-4.48,14.89-6.52,22.94C222.14,128.88,259.59,109.4,266.37,97.71Z" transform="translate(-59.16 -56)"/><path class="cls-13" d="M294.11,109.17h0A10.87,10.87,0,0,0,283.42,122a481.72,481.72,0,0,1,8.65,95.5c-.41,30.56-2.73,59.1-7.47,83.27a21.75,21.75,0,0,1-21.36,17.54h18.58a21.89,21.89,0,0,0,21.48-17.77c7.14-37.18,7.44-69.62,7.44-83C310.74,179.51,303.35,140.77,294.11,109.17Z" transform="translate(-59.16 -56)"/><circle class="cls-18" cx="201.52" cy="147.04" r="35.47"/><circle class="cls-19" cx="201.52" cy="143.31" r="35.47"/><path class="cls-20" d="M260.68,163.84h-.37v70.92h.37a35.47,35.47,0,0,0,0-70.94Z" transform="translate(-59.16 -56)"/><circle class="cls-21" cx="260.68" cy="199.31" r="24.27" transform="translate(-123.74 186.71) rotate(-45)"/><path class="cls-22" d="M260.68,179.2a24.28,24.28,0,0,1,24.18,22.19c.05-.68.09-1.38.09-2.08a24.27,24.27,0,1,0-48.53,0c0,.7,0,1.4.09,2.08A24.27,24.27,0,0,1,260.68,179.2Z" transform="translate(-59.16 -56)"/><path class="cls-23" d="M261.41,399.85l-.37.45h0a23.47,23.47,0,0,1-6-14.95l-3.26-102.64A23.84,23.84,0,0,1,261,263.09l0,0h0a23.86,23.86,0,0,1,9.24,19.66L266.84,385.6A23.48,23.48,0,0,1,261.41,399.85Z" transform="translate(-59.16 -56)"/><path class="cls-20" d="M261.41,399.85l-.37.45h0l0-137.21,0,0h0a23.86,23.86,0,0,1,9.24,19.66L266.84,385.6A23.48,23.48,0,0,1,261.41,399.85Z" transform="translate(-59.16 -56)"/><path class="cls-24" d="M121.28,320.07l1.45,1.07a.61.61,0,0,1-.38,1.1h0a.61.61,0,0,0-.58.85,29.81,29.81,0,0,0,4.88,7.88c9,10.26,24.31,11.88,27.52,12.11a.59.59,0,0,0,.64-.56c.19-3,.6-16.56-6.58-26.7a.6.6,0,0,0-1,0l-.28.37a.61.61,0,0,1-1.09-.4l.07-1.26a3.24,3.24,0,0,0-1-2.48c-7.92-7.7-19.49-9.81-24.34-10.36a2.14,2.14,0,0,0-2.38,2.08,51.62,51.62,0,0,0,1.8,14.59A3.22,3.22,0,0,0,121.28,320.07Z" transform="translate(-59.16 -56)"/><line class="cls-25" x1="65.18" y1="252.28" x2="93.21" y2="284.38"/><line class="cls-25" x1="66.9" y1="259.23" x2="71.11" y2="259.52"/><line class="cls-25" x1="72.46" y1="269" x2="79.82" y2="269.49"/><line class="cls-25" x1="77.13" y1="277.78" x2="87.68" y2="278.49"/><line class="cls-25" x1="71.63" y1="255.11" x2="71.35" y2="259.31"/><line class="cls-25" x1="80.56" y1="261.93" x2="80.06" y2="269.28"/><line class="cls-25" x1="88.63" y1="267.74" x2="87.92" y2="278.28"/><line class="cls-26" x1="163.84" y1="369.43" x2="132.56" y2="188.93"/><line class="cls-26" x1="167.6" y1="188.93" x2="207.2" y2="369.43"/><line class="cls-27" x1="135.15" y1="202.49" x2="170.69" y2="202.49"/><line class="cls-27" x1="131.24" y1="221.26" x2="174.06" y2="221.26"/><line class="cls-27" x1="135.45" y1="240.03" x2="178.27" y2="240.03"/><line class="cls-27" x1="139.66" y1="258.8" x2="182.49" y2="258.8"/><line class="cls-27" x1="143.88" y1="277.57" x2="186.7" y2="277.57"/><line class="cls-27" x1="148.09" y1="296.34" x2="190.91" y2="296.34"/><line class="cls-27" x1="154.38" y1="315.11" x2="195.12" y2="315.11"/><line class="cls-27" x1="156.52" y1="333.89" x2="199.34" y2="333.89"/><line class="cls-27" x1="160.73" y1="352.66" x2="203.55" y2="352.66"/><line class="cls-28" x1="136.32" y1="369.43" x2="167.6" y2="188.93"/><line class="cls-28" x1="132.56" y1="188.93" x2="92.95" y2="369.43"/><line class="cls-29" x1="165.01" y1="202.49" x2="130.51" y2="202.49"/><line class="cls-29" x1="161.64" y1="221.26" x2="126.1" y2="221.26"/><line class="cls-29" x1="158.47" y1="240.03" x2="121.89" y2="240.03"/><line class="cls-29" x1="155.29" y1="258.8" x2="117.67" y2="258.8"/><line class="cls-29" x1="152.12" y1="277.57" x2="113.46" y2="277.57"/><line class="cls-29" x1="148.95" y1="296.34" x2="109.25" y2="296.34"/><line class="cls-29" x1="145.78" y1="315.11" x2="105.03" y2="315.11"/><line class="cls-29" x1="143.64" y1="332.8" x2="100.82" y2="332.8"/><line class="cls-29" x1="139.43" y1="352.66" x2="96.61" y2="352.66"/><path class="cls-30" d="M216.37,276h2.88c-.23-.42-.47-.83-.7-1.2-.54-.88-1.39-1-2.52-1.43l-1.76-.51a6.09,6.09,0,0,0-1.53-.23h0a8.5,8.5,0,0,0-2.19.23l-3.05.74.89,3,1.9-.21C211.15,277.61,215.46,276.05,216.37,276Z" transform="translate(-59.16 -56)"/><path class="cls-31" d="M172.72,276.76c-.05-4.92,1.59-11.05-8.71-21.08a.81.81,0,0,0-1.09-.06c-.85.7-3.57,1-4.94,2.25-2.57,2.28-7.07,9.43-5.81,12.62,2.71,6.81,3.31,11.58,2.94,19.26-.29,7.89,7.9,15.84,14.12,13.66a6.54,6.54,0,0,0,4.15-4.32,5.68,5.68,0,0,0-.38-4.51v0C170.59,290.06,172.89,293.18,172.72,276.76Z" transform="translate(-59.16 -56)"/><path class="cls-30" d="M180.61,347a114.41,114.41,0,0,0,.57-37.56,7.33,7.33,0,0,0-6.45-6.13h0a7.79,7.79,0,0,0-8.51,8.15,54.1,54.1,0,0,0,1,7.35c2.18,11.09,6.4,62.65,6.43,62.66a10,10,0,0,1-.45,3.66c-.62,1.48-1.11,2.86,1,2.86,1.64,0,1.84-.36,4.05-.11a22,22,0,0,0,3.42.1.44.44,0,0,0,.11-.85,40.34,40.34,0,0,1-4.26-1.36c-1.25-.63-1.72-.69-1.73-2.19a8.27,8.27,0,0,1,.07-1.11Z" transform="translate(-59.16 -56)"/><path class="cls-32" d="M181.71,387.16c-1.23-.41-3.12-.82-4.17-1.32a5.19,5.19,0,0,1-1.68.27,4.7,4.7,0,0,1-2.76-.82c-.58,1.43-1,2.73,1,2.73,1.64,0,1.84-.36,4.05-.11a22,22,0,0,0,3.42.1A.44.44,0,0,0,181.71,387.16Z" transform="translate(-59.16 -56)"/><path class="cls-30" d="M154.06,351.25s9.57-.6,10.22-1.93c4.22-8.6,8.46-38.11,7.38-46.31l-7.35-.61a8.1,8.1,0,0,0-8.13,5.74c-1.6,5.31-3.14,14.24-1.7,27.26C154.48,335.4,156.85,344.68,154.06,351.25Z" transform="translate(-59.16 -56)"/><path class="cls-30" d="M162.09,340.28l-.36.11c-4.11,1.11-29.43,8.41-34,9.75a16,16,0,0,1-1.63.22,3.83,3.83,0,0,1-1.76-.38c-1.26-.5-1.86.16-2.69,2.07-.7,1.59-2.71,1.37-2.58,2.78.19,1.94.66,3.17,1.15,3.21.71.06.64-.49,1-2.27.15-.7,1.62-1.45,3-2a14.78,14.78,0,0,1,4.88-1c4.69-.2,15.76-.61,24.94-1.46,2.86-.26,5.88-.83,8-1.12Z" transform="translate(-59.16 -56)"/><path class="cls-32" d="M125.38,350.32a4.25,4.25,0,0,1-1.09-.34c-1.26-.5-1.86.16-2.69,2.07-.7,1.59-2.71,1.37-2.58,2.78.19,1.94.66,3.17,1.15,3.21.71.06.64-.49,1-2.27.12-.58,1.14-1.18,2.28-1.7A4.89,4.89,0,0,1,125.38,350.32Z" transform="translate(-59.16 -56)"/><path class="cls-33" d="M176.3,380.74,180.61,347a114.41,114.41,0,0,0,.57-37.56,7.33,7.33,0,0,0-6.45-6.13h0a7.79,7.79,0,0,0-8.51,8.15,54.1,54.1,0,0,0,1,7.35c2,10.3,5.5,55.51,6.06,61.9Z" transform="translate(-59.16 -56)"/><path class="cls-34" d="M167.18,318.84c1.12,5.72,2.7,22.21,4,36.83q.76-2.71,1.35-5.49c1.16-5.61,1.38-11.34,2.13-17,.68-5.18,2.77-10.33,3-15.52a4.73,4.73,0,0,1,1.71-3.56,4.91,4.91,0,0,0,1.83-4.59v0a7.33,7.33,0,0,0-6.45-6.13h-.19a8.28,8.28,0,0,0-8.28,8.81A55.6,55.6,0,0,0,167.18,318.84Z" transform="translate(-59.16 -56)"/><path class="cls-35" d="M171.66,303l-7.35-.61a8.1,8.1,0,0,0-8.13,5.74c-1.6,5.31-3.14,14.24-1.7,27.26l.53,6.9c-8.06,2.29-20.62,5.4-25.71,6.87l.56,4c4.79-.2,15.13-1.11,24.2-1.95,0,0,9.26-.5,10.22-1.93C169.62,341.36,172.74,311.21,171.66,303Z" transform="translate(-59.16 -56)"/><path class="cls-36" d="M207.48,273.6l-17,8.3c-7-1.59-18.92-8.13-22.63-8.75-.36,1.89-1.12,3.76-.86,6.22a5.72,5.72,0,0,0,4.28,4.89c6.78,1.74,16.71,4.75,21,3.65,5.61-1.45,16.19-11.3,16.19-11.3C208.84,275.75,208.7,273.85,207.48,273.6Z" transform="translate(-59.16 -56)"/><path class="cls-36" d="M207.28,273.6l-17,8.3c-7-1.59-18.91-8.13-22.62-8.75-.36,1.89-1.13,3.76-.86,6.22a5.71,5.71,0,0,0,4.28,4.89c6.77,1.74,16.7,4.75,21,3.65,5.61-1.45,16.18-11.3,16.18-11.3C208.64,275.75,208.5,273.85,207.28,273.6Z" transform="translate(-59.16 -56)"/><path class="cls-37" d="M175.81,292.87c-.21-.46-1.14-2-.19-3.05.75-.85,1.85-2.87,1.6-4.06s-.14-3.07-1.7-5.29c-4.3-6.18-7.71-7.32-7.71-7.32-2.47-.09-7,.44-10.89.61-12.9.59-7.32,7.41-7.32,7.41a18.56,18.56,0,0,1,3.74,5.28c1.6,3.42,3.65,7.8,4.86,10.37.5,1.63-1,6.44-1.52,8.06l-1.11,3.4a1,1,0,0,0,.6,1.23c5.63,1.95,17,2.24,24.22-.07a1.36,1.36,0,0,0,.79-1.94Z" transform="translate(-59.16 -56)"/><path class="cls-30" d="M155.88,254.81c-3.74,1-4.39,4.09-3.1,9a10.53,10.53,0,0,0,2.82,4.43,3.75,3.75,0,0,1,1.14,2.75l-.05,3c.16,2.73,1.78,3.81,3.73,3.82a3.65,3.65,0,0,0,2.63-1.21c.76-.86.48-2.18,0-3.22l-.43-.74a2,2,0,0,1,.73-2.84,7.46,7.46,0,0,0,2.11-1.63c.49-.58.79-4.94-1.21-9.47C162.19,254.07,159.62,253.77,155.88,254.81Z" transform="translate(-59.16 -56)"/><path class="cls-38" d="M151,258.49c3-5.86,9.51-7.77,12.8-5.77,1.76,1.08,4.22,5.69.3,5.84a4.55,4.55,0,0,1-2.68-.81,1.32,1.32,0,0,0-.91-.18l-2.55.88a4.05,4.05,0,0,0-2.53,5.11l.25.75a.46.46,0,0,1-.65.54l-.15-.28a3,3,0,0,0-1.89-1.49C151.24,262.65,149.14,262,151,258.49Z" transform="translate(-59.16 -56)"/><path class="cls-39" d="M179,305.82l-11.15,3.05a.94.94,0,0,1-1.19-.87l-.9-19.6a1,1,0,0,1,.69-1l11-3a1,1,0,0,1,1.2.86l1,19.6A.93.93,0,0,1,179,305.82Z" transform="translate(-59.16 -56)"/><path class="cls-30" d="M176.67,293.69c-.94.57-1.95,1-2.3,1.29a4.51,4.51,0,0,0-.54.63c-.28.33-.66.88-1.08,1l-1.73.58c-.84.27-1.35.87-1.08,1.72h0c.29.91,1.2,1.07,2.07.68l1.22-.39a5.56,5.56,0,0,1,2.23-.29,8.13,8.13,0,0,0,4.3-1.75c.74-.52.56-1.37.38-3-.12-1-.46-2.54-1.12-1.78-.31.35.06,3.14-2.38,3.22-.12,0-.43,0-.48-.15-.15-.41.76-.78,1.15-1.13s.66-1,.5-1.26S177.34,293.29,176.67,293.69Z" transform="translate(-59.16 -56)"/><path class="cls-36" d="M146.69,278.22c1.89-6.1,8.45-3,8.45,1.39,0,2,.41,13-.5,16.82-.35,1.5-.41,2.59,1.37,2.36h0L173,296.15c.89,1.17.56,2.35.18,3.53,0,0-12.6,5.7-19.22,7.43-1.68.44-5.38,1.07-6.37-1.32C146.43,303.09,145.14,283.22,146.69,278.22Z" transform="translate(-59.16 -56)"/><path class="cls-38" d="M159.44,297a17.52,17.52,0,0,0-1.66-11.59,46,46,0,0,1-3.09-8.49c-.77-2.67-1.92-4.89-2.1-7.66-.27-4.1.81-8.21,4.46-11,1.62-1.23,1.76-2.77,3.82-3a6.49,6.49,0,0,0-1.53-1.58s-7.13-2.9-9.76,1.76-2.58,10.87-8.22,18.68c-10.43,14.44-8.43,20.8-3.33,26.42C143.73,306.83,158,304.12,159.44,297Z" transform="translate(-59.16 -56)"/><path class="cls-30" d="M154.76,264.32c.56,1.05,1.24,2.38.32,2.87s-2.86-.93-3.41-2-.11-1.62.81-2.11S154.2,263.28,154.76,264.32Z" transform="translate(-59.16 -56)"/><path class="cls-30" d="M342.64,413.33l1.35,5.29a16.73,16.73,0,0,0,1.22,3.05c.61.9.56,2.55-.87,2.45a8.51,8.51,0,0,0-3.92.27c-2,.67-4.6.11-4.6-.43,0-1.19,1.12-.25,3-1.49.63-.42,1.27-.86,1.85-1.31,1.6-1.26.2-4.45-.78-6.25-.36-.64,0-2.26.74-2.41l.47-.1A1.34,1.34,0,0,1,342.64,413.33Z" transform="translate(-59.16 -56)"/><path class="cls-30" d="M341.44,368c-.39-1-.67-2-.87-2.37a5.44,5.44,0,0,0-.51-.62,3.09,3.09,0,0,1-.81-1.17l-.28-1.73c-.13-.84-.63-1.41-1.47-1.29h0c-.9.14-1.2,1-1,1.86l.18,1.21a5.25,5.25,0,0,1-.06,2.16,7.88,7.88,0,0,0,1,4.35c.38.78,1.5,1.13,3,1.51.75.18,2,.25,1.39-.53s-2.75-1.38-2.46-3.71c0-.11.08-.4.22-.43.41-.07.63.84.89,1.26.38.6.86.79,1.12.68S341.71,368.67,341.44,368Z" transform="translate(-59.16 -56)"/><path class="cls-36" d="M330.13,329.51c1.62-4.62-3-6.24-6.28-2.82-2.79,2.93-12.39,21.86-15.19,24.79-1.73,1.81-10.19,6.23-16.43,9.35l.65,4.19c5.38-1.79,13-4.46,17.12-6.62C320,353.15,327.26,337.76,330.13,329.51Z" transform="translate(-59.16 -56)"/><path class="cls-30" d="M371.79,412.33l1.59,5.25a36.81,36.81,0,0,0,1.43,3.55c.71,1.05.32,2.91-1,2.87a10.26,10.26,0,0,0-4.6.34c-2.38.78-5.19.09-5.39-.51-.37-1.13,1.31-.28,3.49-1.75.74-.49,1.49-1,2.17-1.53,1.88-1.47.24-5.21-.92-7.32a1.29,1.29,0,0,1,.87-1.87l.55-.12A1.56,1.56,0,0,1,371.79,412.33Z" transform="translate(-59.16 -56)"/><path class="cls-33" d="M355.63,350.87l-17.34-1.45s-6.13,22-7.76,31.78c-1.18,7.08,9.54,34.46,9.54,34.46a8.55,8.55,0,0,0,3.33-.42s-2-24.34-.87-30.23c1.16-6.14,9.13-17.49,10.39-20.56C357.53,353.24,355.63,350.87,355.63,350.87Z" transform="translate(-59.16 -56)"/><path class="cls-35" d="M352.05,351.09c-1.79,9.61-5.79,24,1.91,37.46s15.65,27.58,15.65,27.58a5.33,5.33,0,0,0,3.17-1.11s-1.51-6.06-3.46-13.21c-2.23-8.17-5.06-17.78-4.26-22.79,1.51-9.39,3.25-21.9,2.72-28S353,346,352.05,351.09Z" transform="translate(-59.16 -56)"/><path class="cls-40" d="M351.43,363.66A11.2,11.2,0,0,1,335,359.17l-12.3-25.88a6,6,0,0,1,3.3-8.13l9.27-3.46a8.09,8.09,0,0,1,8.79,2.12l22.66,24.71a1.59,1.59,0,0,1,0,2.26,110.19,110.19,0,0,1-15.11,12.71Z" transform="translate(-59.16 -56)"/><path class="cls-41" d="M332,315.31c-.05-1.4,1.28-4-.93-5a6,6,0,0,1-2.59-2.65c-.15-.34-.29-.64-.41-.92v0h0l-.13-.28c-1.53-3.34-5.06-2.36-9.25-.44-3.3,1.51-5.26,5.49-5.42,8.53a5.67,5.67,0,0,0,.68,2.42c2.71,6.39,8.45,6.37,12.75,5.11,1.43.76,4.85-1.08,5.78-2.42S332.1,316.71,332,315.31Z" transform="translate(-59.16 -56)"/><path class="cls-30" d="M319.89,309c3.51-1.61,6,.29,8.13,4.88a10.2,10.2,0,0,1,.7,5.16,3.82,3.82,0,0,0,.89,2.83l2,2.25c1.63,2.18,1.08,4-.39,5.28a3.58,3.58,0,0,1-2.77.76c-1.13-.16-1.76-1.34-2.06-2.44l-.14-.83a2,2,0,0,0-2.38-1.7c-3,.65-4.64-2-7.37-6C313.64,315,316.38,310.64,319.89,309Z" transform="translate(-59.16 -56)"/><path class="cls-41" d="M310.8,310.74l2.29-.31a4.28,4.28,0,0,0,2.27-1l3.49-3c2.43-1.11,7.07-1.58,8.17,2.17l.69,2.68a2.46,2.46,0,0,1-1.18,2.74h0a.87.87,0,0,1-.5.93.86.86,0,0,1-1.14-.43h0A2.63,2.63,0,0,0,322,313a9.66,9.66,0,0,0-4.25,2,5.15,5.15,0,0,1-7.78-1.1c-.1-.18-.19-.36-.28-.55A1.8,1.8,0,0,1,310.8,310.74Z" transform="translate(-59.16 -56)"/><path class="cls-30" d="M326.13,314.89c.49,1.07,1.29,1.75,2.32,1.28s1-2.25.53-3.32-1.28-1-2.31-.56S325.64,313.81,326.13,314.89Z" transform="translate(-59.16 -56)"/><path class="cls-42" d="M342.46,387.34v-6.63a2.78,2.78,0,0,0-2.78-2.78h-2.07a3.08,3.08,0,0,1-2.91-2.07,24.48,24.48,0,0,0-1.14-2.75,3.08,3.08,0,0,1,.6-3.52l1.46-1.46a2.8,2.8,0,0,0,0-3.94l-4.69-4.69a2.78,2.78,0,0,0-3.94,0L325.53,361a3.08,3.08,0,0,1-3.52.6,22.75,22.75,0,0,0-2.75-1.14,3.08,3.08,0,0,1-2.07-2.92v-2.06a2.77,2.77,0,0,0-2.78-2.78h-6.63a2.78,2.78,0,0,0-2.79,2.78v2.06a3.08,3.08,0,0,1-2.06,2.92,22.1,22.1,0,0,0-2.75,1.14,3.1,3.1,0,0,1-3.53-.6l-1.46-1.46a2.77,2.77,0,0,0-3.93,0l-4.69,4.69a2.78,2.78,0,0,0,0,3.94l1.46,1.46a3.06,3.06,0,0,1,.59,3.52,26.51,26.51,0,0,0-1.14,2.75,3.08,3.08,0,0,1-2.91,2.07h-2.06a2.77,2.77,0,0,0-2.78,2.78v6.63a2.78,2.78,0,0,0,2.78,2.79h2.06a3.07,3.07,0,0,1,2.91,2.06,26.51,26.51,0,0,0,1.14,2.75,3.08,3.08,0,0,1-.59,3.53l-1.46,1.46a2.77,2.77,0,0,0,0,3.93l4.69,4.69a2.77,2.77,0,0,0,3.93,0l1.46-1.46a3.08,3.08,0,0,1,3.53-.59,25.63,25.63,0,0,0,2.75,1.14,3.06,3.06,0,0,1,2.06,2.91v2.06a2.78,2.78,0,0,0,2.79,2.78h6.63a2.77,2.77,0,0,0,2.78-2.78v-2.06a3.07,3.07,0,0,1,2.07-2.91A26.51,26.51,0,0,0,322,406.5a3.06,3.06,0,0,1,3.52.59l1.46,1.46a2.78,2.78,0,0,0,3.94,0l4.69-4.69a2.79,2.79,0,0,0,0-3.93l-1.46-1.46a3.1,3.1,0,0,1-.6-3.53,24.48,24.48,0,0,0,1.14-2.75,3.07,3.07,0,0,1,2.91-2.06h2.07A2.79,2.79,0,0,0,342.46,387.34Zm-30.14,11.74a15.1,15.1,0,1,1,13.83-13.83A15.1,15.1,0,0,1,312.32,399.08Z" transform="translate(-59.16 -56)"/><path class="cls-43" d="M351.74,388.32v-8.59a3.61,3.61,0,0,0-3.6-3.61h-2.67a4,4,0,0,1-3.78-2.68,31.76,31.76,0,0,0-1.48-3.56,4,4,0,0,1,.78-4.57l1.89-1.89a3.6,3.6,0,0,0,0-5.1l-6.08-6.08a3.6,3.6,0,0,0-5.1,0l-1.89,1.89a4,4,0,0,1-4.57.78,31.76,31.76,0,0,0-3.56-1.48,4,4,0,0,1-2.68-3.78V347a3.61,3.61,0,0,0-3.61-3.61h-8.6a3.61,3.61,0,0,0-3.6,3.61v2.67a4,4,0,0,1-2.68,3.78,31.76,31.76,0,0,0-3.56,1.48,4,4,0,0,1-4.57-.78l-1.89-1.89a3.6,3.6,0,0,0-5.1,0l-6.08,6.08a3.6,3.6,0,0,0,0,5.1l1.89,1.89a4,4,0,0,1,.77,4.57,31.7,31.7,0,0,0-1.47,3.56,4,4,0,0,1-3.78,2.68h-2.67a3.61,3.61,0,0,0-3.61,3.61v8.59a3.61,3.61,0,0,0,3.61,3.61h2.67a4,4,0,0,1,3.78,2.68,31.7,31.7,0,0,0,1.47,3.56,4,4,0,0,1-.77,4.57l-1.89,1.89a3.6,3.6,0,0,0,0,5.1l6.08,6.08a3.6,3.6,0,0,0,5.1,0l1.89-1.89a4,4,0,0,1,4.57-.77,31.7,31.7,0,0,0,3.56,1.47,4,4,0,0,1,2.68,3.78v2.67a3.61,3.61,0,0,0,3.6,3.61h8.6a3.61,3.61,0,0,0,3.61-3.61V418.4a4,4,0,0,1,2.68-3.78,31.7,31.7,0,0,0,3.56-1.47,4,4,0,0,1,4.57.77l1.89,1.89a3.6,3.6,0,0,0,5.1,0l6.08-6.08a3.6,3.6,0,0,0,0-5.1L341,402.74a4,4,0,0,1-.78-4.57,31.76,31.76,0,0,0,1.48-3.56,4,4,0,0,1,3.78-2.68h2.67A3.6,3.6,0,0,0,351.74,388.32Zm-39.06,15.22a19.57,19.57,0,1,1,17.92-17.93A19.58,19.58,0,0,1,312.68,403.54Z" transform="translate(-59.16 -56)"/><path class="cls-44" d="M311.09,411.78A27.76,27.76,0,1,1,338.85,384,27.79,27.79,0,0,1,311.09,411.78Zm0-52.19A24.44,24.44,0,1,0,335.53,384,24.46,24.46,0,0,0,311.09,359.59Z" transform="translate(-59.16 -56)"/><path class="cls-30" d="M313.67,351a1.56,1.56,0,0,0-1-1.9l-.95-.32a5.14,5.14,0,0,1-2.77-1.94c-.43-.66-2.12-2.2-2.72-1.63s1.66,2.34,1,2.69c-.29.16-2.37-.78-3.75-1.24-.75-.25-1.66,0-1.47.55.12.35-.14.6-.33,1.11s1.14,2,1.45,2.43.28.84,1.78,1.21a34.85,34.85,0,0,0,5.18.18h1.81a1.57,1.57,0,0,0,1.75-1.14Z" transform="translate(-59.16 -56)"/><path class="cls-36" d="M311.5,348.68s19.09,3.11,22.42,2.18,0-22.22.27-24.82c.4-4.31,7.27-4.89,9.9.75,3.32,7.11-3.42,29.87-5.17,31.33s-27.72-5.7-27.72-5.7A5.21,5.21,0,0,1,311.5,348.68Z" transform="translate(-59.16 -56)"/><path class="cls-45" d="M402.38,136l.39,1a3.64,3.64,0,0,0,2,2l1,.39a.56.56,0,0,1,0,1l-1,.39a3.64,3.64,0,0,0-2,2l-.39,1a.57.57,0,0,1-1.06,0l-.39-1a3.61,3.61,0,0,0-2-2l-1-.39a.56.56,0,0,1,0-1l1-.39a3.61,3.61,0,0,0,2-2l.39-1A.57.57,0,0,1,402.38,136Z" transform="translate(-59.16 -56)"/><path class="cls-45" d="M347.09,165.65l.55,1.38a5,5,0,0,0,2.83,2.83l1.38.55a.8.8,0,0,1,0,1.49l-1.38.55a5,5,0,0,0-2.83,2.83l-.55,1.38a.8.8,0,0,1-1.48,0l-.55-1.38a5.06,5.06,0,0,0-2.84-2.83l-1.38-.55a.8.8,0,0,1,0-1.49l1.38-.55a5.06,5.06,0,0,0,2.84-2.83l.55-1.38A.8.8,0,0,1,347.09,165.65Z" transform="translate(-59.16 -56)"/><path class="cls-45" d="M109.64,269.82l.55,1.39A5.08,5.08,0,0,0,113,274l1.38.55a.8.8,0,0,1,0,1.48l-1.38.55a5.06,5.06,0,0,0-2.83,2.84l-.55,1.38a.8.8,0,0,1-1.48,0l-.55-1.38a5.08,5.08,0,0,0-2.84-2.84l-1.38-.55a.8.8,0,0,1,0-1.48l1.38-.55a5.09,5.09,0,0,0,2.84-2.83l.55-1.39A.8.8,0,0,1,109.64,269.82Z" transform="translate(-59.16 -56)"/><path class="cls-45" d="M428,254l.34.84a3,3,0,0,0,1.72,1.72l.84.34a.48.48,0,0,1,0,.9l-.84.33a3.06,3.06,0,0,0-1.72,1.72l-.34.84a.48.48,0,0,1-.9,0l-.33-.84a3.09,3.09,0,0,0-1.72-1.72l-.84-.33a.48.48,0,0,1,0-.9l.84-.34a3.06,3.06,0,0,0,1.72-1.72l.33-.84A.48.48,0,0,1,428,254Z" transform="translate(-59.16 -56)"/><path class="cls-45" d="M442.57,187.41l.55,1.38a5,5,0,0,0,2.83,2.83l1.38.55a.79.79,0,0,1,0,1.48l-1.38.55a5.06,5.06,0,0,0-2.83,2.84l-.55,1.38a.8.8,0,0,1-1.48,0l-.55-1.38a5.08,5.08,0,0,0-2.84-2.84l-1.38-.55a.8.8,0,0,1,0-1.48l1.38-.55a5.06,5.06,0,0,0,2.84-2.83l.55-1.38A.8.8,0,0,1,442.57,187.41Z" transform="translate(-59.16 -56)"/><path class="cls-45" d="M329.24,224.78l.22.55a2,2,0,0,0,1.14,1.15l.56.22a.32.32,0,0,1,0,.59l-.56.23a2,2,0,0,0-1.14,1.14l-.22.55a.32.32,0,0,1-.6,0l-.22-.55a2,2,0,0,0-1.15-1.14l-.55-.23a.32.32,0,0,1,0-.59l.55-.22a2.06,2.06,0,0,0,1.15-1.15l.22-.55A.32.32,0,0,1,329.24,224.78Z" transform="translate(-59.16 -56)"/><path class="cls-45" d="M126.08,98.72l.22.55a2,2,0,0,0,1.14,1.14l.56.23a.32.32,0,0,1,0,.59l-.56.23a2,2,0,0,0-1.14,1.14l-.22.55a.32.32,0,0,1-.6,0l-.22-.55a2,2,0,0,0-1.14-1.14l-.56-.23a.32.32,0,0,1,0-.59l.56-.23a2,2,0,0,0,1.14-1.14l.22-.55A.32.32,0,0,1,126.08,98.72Z" transform="translate(-59.16 -56)"/><path class="cls-45" d="M442.13,340.38l.22.55a2.08,2.08,0,0,0,1.14,1.15l.56.22a.32.32,0,0,1,0,.59l-.56.23a2,2,0,0,0-1.14,1.14l-.22.55a.32.32,0,0,1-.6,0l-.22-.55a2,2,0,0,0-1.14-1.14l-.56-.23a.32.32,0,0,1,0-.59l.56-.22a2.08,2.08,0,0,0,1.14-1.15l.22-.55A.32.32,0,0,1,442.13,340.38Z" transform="translate(-59.16 -56)"/><path class="cls-46" d="M427.88,398.08l.22.55a2,2,0,0,0,1.15,1.14l.55.23a.32.32,0,0,1,0,.59l-.55.23A2,2,0,0,0,428.1,402l-.22.55a.32.32,0,0,1-.59,0l-.23-.55a2,2,0,0,0-1.14-1.14l-.56-.23a.32.32,0,0,1,0-.59l.56-.23a2,2,0,0,0,1.14-1.14l.23-.55A.32.32,0,0,1,427.88,398.08Z" transform="translate(-59.16 -56)"/><path class="cls-45" d="M199.64,237.34l.22.55A2,2,0,0,0,201,239l.56.23a.32.32,0,0,1,0,.59l-.56.22a2.08,2.08,0,0,0-1.14,1.15l-.22.55a.32.32,0,0,1-.6,0l-.22-.55a2.08,2.08,0,0,0-1.14-1.15l-.56-.22a.32.32,0,0,1,0-.59l.56-.23a2,2,0,0,0,1.14-1.14l.22-.55A.32.32,0,0,1,199.64,237.34Z" transform="translate(-59.16 -56)"/><path class="cls-45" d="M379.07,251.49l.22.55a2.08,2.08,0,0,0,1.14,1.15l.56.22a.32.32,0,0,1,0,.59l-.56.23a2,2,0,0,0-1.14,1.14l-.22.55a.32.32,0,0,1-.6,0l-.22-.55a2,2,0,0,0-1.14-1.14l-.56-.23a.32.32,0,0,1,0-.59l.56-.22a2.08,2.08,0,0,0,1.14-1.15l.22-.55A.32.32,0,0,1,379.07,251.49Z" transform="translate(-59.16 -56)"/><path class="cls-46" d="M202.55,155.29l.22.56a2.06,2.06,0,0,0,1.14,1.14l.56.22a.32.32,0,0,1,0,.6l-.56.22a2.06,2.06,0,0,0-1.14,1.14l-.22.56a.32.32,0,0,1-.6,0l-.22-.56a2.06,2.06,0,0,0-1.14-1.14l-.56-.22a.32.32,0,0,1,0-.6l.56-.22a2.06,2.06,0,0,0,1.14-1.14l.22-.56A.32.32,0,0,1,202.55,155.29Z" transform="translate(-59.16 -56)"/><path class="cls-45" d="M86.83,131l.23.56a2,2,0,0,0,1.14,1.14l.55.22a.32.32,0,0,1,0,.6l-.55.22a2,2,0,0,0-1.14,1.14l-.23.56a.32.32,0,0,1-.59,0l-.22-.56a2.08,2.08,0,0,0-1.15-1.14l-.55-.22a.32.32,0,0,1,0-.6l.55-.22A2.08,2.08,0,0,0,86,131.57l.22-.56A.32.32,0,0,1,86.83,131Z" transform="translate(-59.16 -56)"/><path class="cls-45" d="M79.27,315l.23.55a2,2,0,0,0,1.14,1.15l.55.22a.32.32,0,0,1,0,.6l-.55.22a2,2,0,0,0-1.14,1.14l-.23.56a.32.32,0,0,1-.59,0l-.23-.56a2,2,0,0,0-1.14-1.14l-.55-.22a.32.32,0,0,1,0-.6l.55-.22a2,2,0,0,0,1.14-1.15l.23-.55A.32.32,0,0,1,79.27,315Z" transform="translate(-59.16 -56)"/><path class="cls-45" d="M61.88,265.87l.22.55a2.09,2.09,0,0,0,1.15,1.15l.55.22a.32.32,0,0,1,0,.59l-.55.23a2,2,0,0,0-1.15,1.14l-.22.55a.31.31,0,0,1-.59,0l-.23-.55a2,2,0,0,0-1.14-1.14l-.56-.23a.32.32,0,0,1,0-.59l.56-.22a2,2,0,0,0,1.14-1.15l.23-.55A.32.32,0,0,1,61.88,265.87Z" transform="translate(-59.16 -56)"/><path class="cls-45" d="M86.14,231.1l.22.56a2.06,2.06,0,0,0,1.14,1.14l.56.22a.32.32,0,0,1,0,.6l-.56.22A2.06,2.06,0,0,0,86.36,235l-.22.56a.32.32,0,0,1-.6,0l-.22-.56a2.06,2.06,0,0,0-1.14-1.14l-.56-.22a.32.32,0,0,1,0-.6l.56-.22a2.06,2.06,0,0,0,1.14-1.14l.22-.56A.32.32,0,0,1,86.14,231.1Z" transform="translate(-59.16 -56)"/><path class="cls-45" d="M393.12,203.46l.18.44a1.59,1.59,0,0,0,.9.9l.45.18a.25.25,0,0,1,0,.47l-.45.18a1.58,1.58,0,0,0-.9.91l-.18.44a.25.25,0,0,1-.47,0l-.18-.44a1.58,1.58,0,0,0-.9-.91l-.45-.18a.25.25,0,0,1,0-.47l.45-.18a1.59,1.59,0,0,0,.9-.9l.18-.44A.25.25,0,0,1,393.12,203.46Z" transform="translate(-59.16 -56)"/><path class="cls-30" d="M166.33,160.71a21.62,21.62,0,0,1-3.71,5l-1.48,1.36a1.89,1.89,0,0,0,.32,3s1.58.36,4.95,4.49c1.58,1.94,3.89,3.62,4,3,.32-1.36-.31-2.36-2-4.33-4-4.48-.81-9.25.79-11,.58-.64-.07-1.83-.84-2.2h0A1.56,1.56,0,0,0,166.33,160.71Z" transform="translate(-59.16 -56)"/><path class="cls-33" d="M171.8,104.29c-6.66-8.74-17.64.81-13,7.92,3.31,5.1,10.33,15.43,16.33,22.78l.16.2a5.76,5.76,0,0,1,.56,6.09c-1.61,3.17-3.47,6.48-5.16,9.57-3.56,6.48-6.29,12.1-6.29,12.1a7.37,7.37,0,0,0,3.33,2.13s15.41-14.68,20.07-25a8.21,8.21,0,0,0,.69-3.35v-.14C186.43,128.22,177.35,111.59,171.8,104.29Z" transform="translate(-59.16 -56)"/><circle class="cls-47" cx="154.48" cy="170.56" r="48.71" transform="translate(-134.52 103.19) rotate(-45)"/><circle class="cls-48" cx="137.52" cy="151.22" r="16.41" transform="translate(-120.9 140.76) rotate(-60.59)"/><circle class="cls-49" cx="137.52" cy="151.22" r="13.84" transform="translate(-100.27 194.56) rotate(-76.8)"/><path class="cls-50" d="M147.86,142A13.84,13.84,0,0,1,125,157.2,13.84,13.84,0,1,0,147.86,142Z" transform="translate(-59.16 -56)"/><circle class="cls-51" cx="180.41" cy="194.09" r="13.39" transform="translate(-143.57 128.42) rotate(-45)"/><circle class="cls-52" cx="180.41" cy="194.09" r="10.66" transform="translate(-99.16 285.21) rotate(-80.81)"/><path class="cls-50" d="M188.38,187A10.66,10.66,0,0,1,170.8,198.7,10.66,10.66,0,1,0,188.38,187Z" transform="translate(-59.16 -56)"/><circle class="cls-53" cx="144.04" cy="200.81" r="9.89" transform="translate(-136.46 254.72) rotate(-80.75)"/><circle class="cls-54" cx="144.05" cy="200.81" r="7.82" transform="translate(-131.79 25.96) rotate(-25.6)"/><path class="cls-50" d="M149.89,195.62a7.82,7.82,0,0,1-12.9,8.57,7.82,7.82,0,1,0,12.9-8.57Z" transform="translate(-59.16 -56)"/><circle class="cls-55" cx="101.56" cy="119.04" r="7.47"/><path class="cls-56" d="M166.44,175a5.72,5.72,0,1,1-5.72-5.72A5.72,5.72,0,0,1,166.44,175Z" transform="translate(-59.16 -56)"/><path class="cls-50" d="M165,171.24a5.86,5.86,0,0,1,.56,2.48,5.72,5.72,0,0,1-10,3.79,5.72,5.72,0,1,0,9.44-6.27Z" transform="translate(-59.16 -56)"/><circle class="cls-57" cx="120.05" cy="177.33" r="10.68" transform="translate(-118.2 3.93) rotate(-22.66)"/><circle class="cls-58" cx="120.05" cy="177.33" r="8.23" transform="translate(-118.13 3.81) rotate(-22.62)"/><path class="cls-50" d="M126.2,171.87a8.12,8.12,0,0,1,.81,3.55,8.22,8.22,0,0,1-14.37,5.46,8.22,8.22,0,1,0,13.56-9Z" transform="translate(-59.16 -56)"/><circle class="cls-59" cx="115.91" cy="89.05" r="10.56"/><circle class="cls-60" cx="175.08" cy="145.05" r="8.23" transform="translate(-101.48 22.49) rotate(-22.62)"/><path class="cls-61" d="M181.22,139.59a8.12,8.12,0,0,1,.81,3.55,8.22,8.22,0,0,1-14.37,5.46,8.22,8.22,0,1,0,13.56-9Z" transform="translate(-59.16 -56)"/><path class="cls-62" d="M200.45,167.57a10.28,10.28,0,1,1-10.28-10.28A10.28,10.28,0,0,1,200.45,167.57Z" transform="translate(-59.16 -56)"/><circle class="cls-63" cx="190.17" cy="167.57" r="8.23" transform="translate(-121.95 127.55) rotate(-45)"/><path class="cls-50" d="M196.32,162.11a8.23,8.23,0,0,1-13.57,9,8.23,8.23,0,1,0,13.57-9Z" transform="translate(-59.16 -56)"/><path class="cls-64" d="M207.94,95.13c-.12-2.87.06-4.49-1.07-7.8-5.88-.19-12.56-.75-15.25-.28-4.44.78-5.55,5.55-5.55,5.55-.15,1.27.49,2.88,4.52,3C192.78,95.6,200.81,94.55,207.94,95.13Z" transform="translate(-59.16 -56)"/><path class="cls-65" d="M260.8,68.88C224.16,57,195.69,53.29,192.35,58c-3.95,5.55,8.84,31.22,32.24,61.73Z" transform="translate(-59.16 -56)"/><path class="cls-66" d="M228.23,114.59l3.88-5.45c-13-16.88-23-27.51-31-39.55a1,1,0,0,0-1.7.93C203.62,79.86,212.33,93.86,228.23,114.59Z" transform="translate(-59.16 -56)"/><path class="cls-13" d="M260.84,68.89C224.18,57,195.69,53.29,192.35,58c-.3.42,25,6.33,61.11,21.28Z" transform="translate(-59.16 -56)"/><path class="cls-30" d="M169.76,120l30.06-23.61a3.62,3.62,0,0,0,.73-4.31L198.94,89a10,10,0,0,0-13-4.51l-30.74,14Z" transform="translate(-59.16 -56)"/><path class="cls-30" d="M131.38,153.78a21.58,21.58,0,0,1-5.78,2.42l-2,.4a1.89,1.89,0,0,0-1.29,2.76s1.17,1.12,1.92,6.39c.36,2.48,1.48,5.11,1.92,4.66,1-1,1-2.18.48-4.76-1.08-5.88,4.07-8.34,6.36-9,.83-.25.89-1.61.41-2.33h0A1.57,1.57,0,0,0,131.38,153.78Z" transform="translate(-59.16 -56)"/><path class="cls-67" d="M164.53,114.08c-2.49-10.7-15-7.18-13.7,1.19.94,6,1.69,19,4.15,28.18l.06.24a5.72,5.72,0,0,1-2,5.78c-2.77,2.24-5.82,4.5-8.63,6.63-5.89,4.45-10.69,8.46-10.69,8.46a3.52,3.52,0,0,0,.16.45A18.87,18.87,0,0,1,131,166.4l-1.9.63a1.89,1.89,0,0,0-1,2.89s1.29,1,2.67,6.12c.65,2.42,2.08,4.9,2.46,4.4.85-1.1.69-2.28-.09-4.78a7.13,7.13,0,0,1,2.47-8l.26.22s20.08-7.08,28.53-14.55a8.13,8.13,0,0,0,2-2.77c0-.08.05-.12.05-.13C168.08,141.9,166.6,123,164.53,114.08Z" transform="translate(-59.16 -56)"/><path class="cls-35" d="M165.14,108.26c-1.19-10.93-15.53-8.4-15.23.07.21,6.08.9,18.55,2.26,27.94l0,.25a5.76,5.76,0,0,1-2.66,5.51c-3,1.89-6.31,3.77-9.36,5.54-6.38,3.72-11.62,7.13-11.62,7.13a7.4,7.4,0,0,0,1.75,3.54s20.78-4.63,30.06-11a8.07,8.07,0,0,0,2.32-2.51.64.64,0,0,0,.07-.12C165.36,136.3,166.14,117.37,165.14,108.26Z" transform="translate(-59.16 -56)"/><path class="cls-40" d="M159,116.85a25.28,25.28,0,0,0,6,6.37,2.92,2.92,0,0,0,3.55-.21l32.45-27.08a2.54,2.54,0,0,0,.17-2.76l-2.24-4.46a9.59,9.59,0,0,0-12.47-4.45L156,97.8a4,4,0,0,0-2.36,4A31.35,31.35,0,0,0,159,116.85Z" transform="translate(-59.16 -56)"/><path class="cls-64" d="M198.86,88.71a9.6,9.6,0,0,0-4.72-4.47,4.11,4.11,0,0,0,4.13,7.06,4.16,4.16,0,0,0,1.37-1Z" transform="translate(-59.16 -56)"/><path class="cls-30" d="M241.34,93.34c-.73.76-1.53,1.44-1.79,1.77a5.76,5.76,0,0,0-.34.72,3,3,0,0,1-.73,1.22L237,98a1.27,1.27,0,0,0-.55,1.86h0c.5.77,1.38.68,2.08.1l1-.68a5.12,5.12,0,0,1,2-.84,7.84,7.84,0,0,0,3.51-2.73c.55-.67.39-1.84.1-3.37-.15-.76-.59-1.88-1.06-1s-.09,3.06-2.33,3.77c-.1,0-.39.1-.47,0-.25-.35.49-.92.76-1.34.38-.59.35-1.11.14-1.3S241.85,92.79,241.34,93.34Z" transform="translate(-59.16 -56)"/><path class="cls-35" d="M209.19,73a5.19,5.19,0,0,0-.73-2.15c-1.68-2.18-5.17-4.15-8.4-3.58-4.1.71-7.23,1.79-6.66,5.07,0,.08,0,.18,0,.27h0c.05.27.1.57.17.9a5.46,5.46,0,0,1-.58,3.29c-1.1,1.94,1.21,3.16,1.88,4.23s.39,2.89,1.85,3.44,4.86.14,5.54-1.15C206.16,82.07,210.44,79.15,209.19,73Z" transform="translate(-59.16 -56)"/><path class="cls-30" d="M203.34,70.66c-3.32-1-5.08,1.06-6.51,5.42a7.27,7.27,0,0,0-.29,3.62,6.54,6.54,0,0,1-.83,4.18l-1.11,1.67c-.36.63-.33.52-.53.87a3,3,0,0,0-.39,1.58,2.86,2.86,0,0,0,4.87,1.62,3.44,3.44,0,0,0,.84-1.78l.42-2.7c4.13,1.69,5.38-1,7.75-5.76C209.63,75.28,206.67,71.7,203.34,70.66Z" transform="translate(-59.16 -56)"/><path class="cls-35" d="M211.1,72.78a1.28,1.28,0,0,0-1.27-1.37,4.77,4.77,0,0,1-2.39-.93L204,68.19c-2.31-.72-6.52-.6-7.08,2.87l-.3,2.47A2.22,2.22,0,0,0,198,75.87h0a.77.77,0,0,0,.55.77.78.78,0,0,0,1-.51h0A2.37,2.37,0,0,1,202,74.49c1.35.11,2.5,1.43,3.85,2.18C209.85,78.9,210.85,75.12,211.1,72.78Z" transform="translate(-59.16 -56)"/><path class="cls-30" d="M198.42,76.62c-.32,1-.95,1.72-1.93,1.41s-1.17-1.9-.85-2.91,1-1.07,2-.76S198.74,75.6,198.42,76.62Z" transform="translate(-59.16 -56)"/><path class="cls-30" d="M187.13,94.14s19.43,11.87,29.62,10.92c7-.66,21.11-4.67,21.11-4.67s1.08-1.09,1-1.72a15.22,15.22,0,0,0-.29-1.7A5.4,5.4,0,0,1,235.91,98c-5.47.57-17.78,1-20.53.31-3.56-.84-21.06-10.62-24.72-10.51S184,91.06,187.13,94.14Z" transform="translate(-59.16 -56)"/><path class="cls-37" d="M206.13,93.89c-6.26-3-13.79-6.58-16-6.52-3.95.12-6.2,5-3.06,7.15a129.12,129.12,0,0,0,16.2,8.18A16.9,16.9,0,0,0,206.13,93.89Z" transform="translate(-59.16 -56)"/><path class="cls-33" d="M345.58,422.9a2.25,2.25,0,0,0-.37-1.23s-.17-.31-.4-.84a4.66,4.66,0,0,1-3,1,5.3,5.3,0,0,1-1.69-.27c-.44.32-.9.64-1.36,1-1.86,1.24-3.92.29-3.92,1.49,0,.53,3.51,1.1,5.54.43a7.13,7.13,0,0,1,1.42-.31v.24a.36.36,0,0,0,.36.36h3a.36.36,0,0,0,.35-.36V422.9Z" transform="translate(-59.16 -56)"/><path class="cls-33" d="M374.81,421.13s-.2-.42-.5-1.14a4.54,4.54,0,0,1-3.25,1.22,5.06,5.06,0,0,1-2-.38c-.57.43-1.18.85-1.79,1.25-2.18,1.47-3.86.62-3.49,1.75.2.6,3,1.29,5.39.51a9.37,9.37,0,0,1,2.65-.45V424a.41.41,0,0,0,.41.42h2.5a.42.42,0,0,0,.41-.42v-2.08A5.35,5.35,0,0,0,374.81,421.13Z" transform="translate(-59.16 -56)"/></g></g></svg>