<svg id="Patterns" xmlns="http://www.w3.org/2000/svg" xmlns:xlink="http://www.w3.org/1999/xlink" viewBox="0 0 1200 800"><defs><style>.cls-1{fill:none;}.cls-2{fill:#050405;}.cls-3{fill:#050500;}.cls-4{fill:#040203;}.cls-5{fill:url(#New_Pattern_5);}</style><pattern id="New_Pattern_5" data-name="New Pattern 5" width="1200" height="1200" patternTransform="translate(1172.06 337.6) scale(1.12)" patternUnits="userSpaceOnUse" viewBox="0 0 1200 1200"><rect class="cls-1" width="1200" height="1200"/><rect x="1186.09" y="1033.87" width="27.83" height="1532.27"/><rect x="1186.09" y="1033.87" width="27.83" height="1532.27"/><rect x="-13.91" y="1033.87" width="27.83" height="1532.27"/><rect class="cls-2" x="52.09" y="1033.87" width="27.83" height="1532.27"/><rect x="122.09" y="1033.87" width="27.83" height="1532.27"/><rect x="193.09" y="1033.87" width="27.83" height="1532.27"/><rect class="cls-3" x="263.09" y="1033.87" width="27.83" height="1532.27"/><rect x="333.09" y="1033.87" width="27.83" height="1532.27"/><rect class="cls-2" x="404.09" y="1033.87" width="27.83" height="1532.27"/><rect x="473.09" y="1033.87" width="27.83" height="1532.27"/><rect class="cls-4" x="543.09" y="1033.87" width="27.83" height="1532.27"/><rect x="614.09" y="1033.87" width="27.83" height="1532.27"/><rect x="684.09" y="1033.87" width="27.83" height="1532.27"/><rect x="754.09" y="1033.87" width="27.83" height="1532.27"/><rect x="825.09" y="1033.87" width="27.83" height="1532.27"/><rect class="cls-2" x="900.09" y="1033.87" width="27.83" height="1532.27"/><rect class="cls-3" x="970.09" y="1033.87" width="27.83" height="1532.27"/><rect x="1040.09" y="1033.87" width="27.83" height="1532.27"/><rect class="cls-3" x="1111.09" y="1033.87" width="27.83" height="1532.27"/><rect x="-13.91" y="1033.87" width="27.83" height="1532.27"/><rect x="1186.09" y="-166.13" width="27.83" height="1532.27"/><rect x="1186.09" y="-166.13" width="27.83" height="1532.27"/><rect x="-13.91" y="-166.13" width="27.83" height="1532.27"/><rect class="cls-2" x="52.09" y="-166.13" width="27.83" height="1532.27"/><rect x="122.09" y="-166.13" width="27.83" height="1532.27"/><rect x="193.09" y="-166.13" width="27.83" height="1532.27"/><rect class="cls-3" x="263.09" y="-166.13" width="27.83" height="1532.27"/><rect x="333.09" y="-166.13" width="27.83" height="1532.27"/><rect class="cls-2" x="404.09" y="-166.13" width="27.83" height="1532.27"/><rect x="473.09" y="-166.13" width="27.83" height="1532.27"/><rect class="cls-4" x="543.09" y="-166.13" width="27.83" height="1532.27"/><rect x="614.09" y="-166.13" width="27.83" height="1532.27"/><rect x="684.09" y="-166.13" width="27.83" height="1532.27"/><rect x="754.09" y="-166.13" width="27.83" height="1532.27"/><rect x="825.09" y="-166.13" width="27.83" height="1532.27"/><rect class="cls-2" x="900.09" y="-166.13" width="27.83" height="1532.27"/><rect class="cls-3" x="970.09" y="-166.13" width="27.83" height="1532.27"/><rect x="1040.09" y="-166.13" width="27.83" height="1532.27"/><rect class="cls-3" x="1111.09" y="-166.13" width="27.83" height="1532.27"/><rect x="-13.91" y="-166.13" width="27.83" height="1532.27"/><rect x="1186.09" y="-1366.13" width="27.83" height="1532.27"/><rect x="1186.09" y="-1366.13" width="27.83" height="1532.27"/><rect x="-13.91" y="-1366.13" width="27.83" height="1532.27"/><rect class="cls-2" x="52.09" y="-1366.13" width="27.83" height="1532.27"/><rect x="122.09" y="-1366.13" width="27.83" height="1532.27"/><rect x="193.09" y="-1366.13" width="27.83" height="1532.27"/><rect class="cls-3" x="263.09" y="-1366.13" width="27.83" height="1532.27"/><rect x="333.09" y="-1366.13" width="27.83" height="1532.27"/><rect class="cls-2" x="404.09" y="-1366.13" width="27.83" height="1532.27"/><rect x="473.09" y="-1366.13" width="27.83" height="1532.27"/><rect class="cls-4" x="543.09" y="-1366.13" width="27.83" height="1532.27"/><rect x="614.09" y="-1366.13" width="27.83" height="1532.27"/><rect x="684.09" y="-1366.13" width="27.83" height="1532.27"/><rect x="754.09" y="-1366.13" width="27.83" height="1532.27"/><rect x="825.09" y="-1366.13" width="27.83" height="1532.27"/><rect class="cls-2" x="900.09" y="-1366.13" width="27.83" height="1532.27"/><rect class="cls-3" x="970.09" y="-1366.13" width="27.83" height="1532.27"/><rect x="1040.09" y="-1366.13" width="27.83" height="1532.27"/><rect class="cls-3" x="1111.09" y="-1366.13" width="27.83" height="1532.27"/><rect x="-13.91" y="-1366.13" width="27.83" height="1532.27"/></pattern></defs><rect class="cls-5" width="1200" height="800"/></svg>